<mxfile host="65bd71144e">
    <diagram id="4rQaVg7Lklrvne5tCxNN" name="Page-1">
        <mxGraphModel dx="912" dy="1685" grid="1" gridSize="10" guides="1" tooltips="1" connect="1" arrows="1" fold="1" page="1" pageScale="1" pageWidth="850" pageHeight="1100" math="0" shadow="0">
            <root>
                <mxCell id="0"/>
                <mxCell id="1" parent="0"/>
                <mxCell id="19" value="" style="rounded=1;whiteSpace=wrap;html=1;strokeColor=#363636;fillColor=#B0B0B0;" parent="1" vertex="1">
                    <mxGeometry y="-80" width="710" height="560" as="geometry"/>
                </mxCell>
                <mxCell id="11" value="" style="edgeStyle=orthogonalEdgeStyle;rounded=0;orthogonalLoop=1;jettySize=auto;html=1;strokeColor=#333333;exitX=0.5;exitY=0;exitDx=0;exitDy=0;" parent="1" source="8" target="10" edge="1">
                    <mxGeometry relative="1" as="geometry">
                        <mxPoint x="120" y="80" as="sourcePoint"/>
                    </mxGeometry>
                </mxCell>
                <mxCell id="16" value="" style="edgeStyle=orthogonalEdgeStyle;rounded=0;orthogonalLoop=1;jettySize=auto;html=1;strokeColor=#333333;" parent="1" source="5" target="15" edge="1">
                    <mxGeometry relative="1" as="geometry"/>
                </mxCell>
                <mxCell id="5" value="" style="shape=datastore;whiteSpace=wrap;html=1;fontFamily=Helvetica;fontSize=12;align=center;strokeColor=#56517e;fillColor=#d0cee2;fontColor=#292929;" parent="1" vertex="1">
                    <mxGeometry x="460" y="-45" width="120" height="90" as="geometry"/>
                </mxCell>
                <mxCell id="13" value="" style="edgeStyle=orthogonalEdgeStyle;rounded=0;orthogonalLoop=1;jettySize=auto;html=1;strokeColor=#333333;" parent="1" source="10" target="12" edge="1">
                    <mxGeometry relative="1" as="geometry"/>
                </mxCell>
                <mxCell id="10" value="Type in URL in address bar" style="whiteSpace=wrap;html=1;rounded=0;strokeColor=#0e8088;fillColor=#b0e3e6;fontStyle=1;fontColor=#212121;" parent="1" vertex="1">
                    <mxGeometry x="60" y="-30" width="120" height="60" as="geometry"/>
                </mxCell>
                <mxCell id="14" style="edgeStyle=orthogonalEdgeStyle;rounded=0;orthogonalLoop=1;jettySize=auto;html=1;entryX=0;entryY=0.5;entryDx=0;entryDy=0;strokeColor=#333333;" parent="1" source="12" target="5" edge="1">
                    <mxGeometry relative="1" as="geometry"/>
                </mxCell>
                <mxCell id="12" value="HTTP request&lt;br&gt;GET, POST, etc." style="whiteSpace=wrap;html=1;rounded=0;strokeColor=#0e8088;fillColor=#b0e3e6;fontStyle=1;fontColor=#212121;" parent="1" vertex="1">
                    <mxGeometry x="215" y="-30" width="120" height="60" as="geometry"/>
                </mxCell>
                <mxCell id="25" style="edgeStyle=orthogonalEdgeStyle;rounded=0;orthogonalLoop=1;jettySize=auto;html=1;exitX=0;exitY=0.5;exitDx=0;exitDy=0;entryX=0.5;entryY=0;entryDx=0;entryDy=0;strokeColor=#333333;" parent="1" source="15" target="23" edge="1">
                    <mxGeometry relative="1" as="geometry"/>
                </mxCell>
                <mxCell id="26" style="edgeStyle=orthogonalEdgeStyle;rounded=0;orthogonalLoop=1;jettySize=auto;html=1;exitX=1;exitY=0.5;exitDx=0;exitDy=0;entryX=0.5;entryY=0;entryDx=0;entryDy=0;strokeColor=#333333;" parent="1" source="15" target="24" edge="1">
                    <mxGeometry relative="1" as="geometry"/>
                </mxCell>
                <mxCell id="15" value="Valid&lt;br&gt;Request?" style="rhombus;whiteSpace=wrap;html=1;strokeColor=#b46504;fillColor=#fad7ac;fontStyle=1;fontColor=#212121;" parent="1" vertex="1">
                    <mxGeometry x="460" y="80" width="120" height="110" as="geometry"/>
                </mxCell>
                <mxCell id="28" style="edgeStyle=orthogonalEdgeStyle;rounded=0;orthogonalLoop=1;jettySize=auto;html=1;exitX=0.5;exitY=1;exitDx=0;exitDy=0;entryX=0.5;entryY=1;entryDx=0;entryDy=0;strokeColor=#333333;" parent="1" source="23" edge="1">
                    <mxGeometry relative="1" as="geometry">
                        <Array as="points">
                            <mxPoint x="430" y="390"/>
                            <mxPoint x="120" y="390"/>
                        </Array>
                        <mxPoint x="120" y="250" as="targetPoint"/>
                    </mxGeometry>
                </mxCell>
                <mxCell id="23" value="&lt;p style=&quot;line-height: 16.8px&quot;&gt;&lt;b&gt;Status Code:&lt;/b&gt;&amp;nbsp;&lt;/p&gt;&lt;p style=&quot;line-height: 0px&quot;&gt;200&lt;/p&gt;&lt;p style=&quot;line-height: 16.8px&quot;&gt;&lt;b&gt;Data:&lt;/b&gt;&amp;nbsp;HTML, CSS, Javascript&lt;/p&gt;" style="rounded=0;whiteSpace=wrap;html=1;strokeColor=#0e8088;fillColor=#b0e3e6;fontColor=#212121;" parent="1" vertex="1">
                    <mxGeometry x="370" y="220" width="120" height="100" as="geometry"/>
                </mxCell>
                <mxCell id="29" style="edgeStyle=orthogonalEdgeStyle;rounded=0;orthogonalLoop=1;jettySize=auto;html=1;strokeColor=#333333;" parent="1" source="24" edge="1">
                    <mxGeometry relative="1" as="geometry">
                        <mxPoint x="430" y="390" as="targetPoint"/>
                        <Array as="points">
                            <mxPoint x="622" y="390"/>
                        </Array>
                    </mxGeometry>
                </mxCell>
                <mxCell id="24" value="&lt;p style=&quot;line-height: 140%&quot;&gt;&lt;b&gt;Status Code:&lt;/b&gt;&amp;nbsp;&lt;/p&gt;&lt;p style=&quot;line-height: 0%&quot;&gt;400-500&lt;/p&gt;&lt;p style=&quot;line-height: 140%&quot;&gt;&lt;b&gt;Data:&lt;/b&gt;&amp;nbsp;Error!&lt;/p&gt;" style="rounded=0;whiteSpace=wrap;html=1;strokeColor=#0e8088;fillColor=#b0e3e6;fontColor=#212121;" parent="1" vertex="1">
                    <mxGeometry x="560" y="220" width="125" height="100" as="geometry"/>
                </mxCell>
                <mxCell id="30" value="&quot;Server&quot;" style="text;fillColor=#d0cee2;html=1;fontSize=24;fontStyle=1;verticalAlign=middle;align=center;fontColor=#292929;" parent="1" vertex="1">
                    <mxGeometry x="470" y="-10" width="100" height="40" as="geometry"/>
                </mxCell>
                <mxCell id="33" value="" style="ellipse;whiteSpace=wrap;html=1;aspect=fixed;rounded=0;strokeColor=#56517e;fillColor=#d0cee2;fontColor=#292929;" vertex="1" parent="1">
                    <mxGeometry x="40" y="90" width="160" height="160" as="geometry"/>
                </mxCell>
                <mxCell id="8" value="&quot;Client&quot;" style="text;html=1;fontSize=24;fontStyle=1;verticalAlign=middle;align=center;fontColor=#292929;" parent="1" vertex="1">
                    <mxGeometry x="70" y="102" width="100" height="40" as="geometry"/>
                </mxCell>
                <mxCell id="9" value="Web Browser" style="text;html=1;fillColor=#d0cee2;align=center;verticalAlign=middle;whiteSpace=wrap;rounded=0;fontColor=#292929;fontStyle=1" parent="1" vertex="1">
                    <mxGeometry x="75" y="215" width="90" height="20" as="geometry"/>
                </mxCell>
                <mxCell id="36" value="Yes" style="text;html=1;strokeColor=none;fillColor=none;align=center;verticalAlign=middle;whiteSpace=wrap;rounded=0;fontColor=#212121;fontStyle=1" vertex="1" parent="1">
                    <mxGeometry x="420" y="117" width="40" height="20" as="geometry"/>
                </mxCell>
                <mxCell id="37" value="No" style="text;html=1;strokeColor=none;fillColor=none;align=center;verticalAlign=middle;whiteSpace=wrap;rounded=0;fontColor=#212121;fontStyle=1" vertex="1" parent="1">
                    <mxGeometry x="595" y="117" width="40" height="20" as="geometry"/>
                </mxCell>
                <mxCell id="41" value="" style="group" vertex="1" connectable="0" parent="1">
                    <mxGeometry x="84" y="143" width="72" height="72" as="geometry"/>
                </mxCell>
                <mxCell id="34" value="" style="ellipse;whiteSpace=wrap;html=1;aspect=fixed;rounded=0;fontColor=#212121;fillColor=#2B2B2B;strokeColor=none;" vertex="1" parent="41">
                    <mxGeometry y="-5" width="72" height="72" as="geometry"/>
                </mxCell>
                <mxCell id="7" value="" style="image;html=1;image=img/lib/clip_art/computers/Netbook_128x128.png" parent="41" vertex="1">
                    <mxGeometry x="16" y="7" width="46" height="52" as="geometry"/>
                </mxCell>
            </root>
        </mxGraphModel>
    </diagram>
</mxfile>